<svg xmlns="http://www.w3.org/2000/svg" xmlns:xlink="http://www.w3.org/1999/xlink" fill="none" version="1.1" width="5" height="9" viewBox="0 0 5 9"><g><g><path d="M0.8536129299999999,0.14650616L4.8535533,4.1464467Q4.8883753,4.1812687,4.9157343,4.2222147Q4.9430938,4.2631607,4.9619393,4.3086576Q4.9807849,4.3541548,4.9903927,4.4024544Q5,4.4507537,5,4.499999799999999Q5,4.5492454,4.9903927,4.5975451Q4.9807849,4.6458445,4.9619393,4.6913414Q4.9430938,4.7368383,4.9157343,4.7777853Q4.8883753,4.8187313,4.8535533,4.8535533L0.8535533799999999,8.8535538Q0.78322715,8.9238796,0.69134164,8.9619389Q0.599456109,9,0.5,9Q0.4507543,9,0.40245484600000003,8.9903927Q0.35415538999999996,8.9807854,0.3086583,8.9619389Q0.26316121000000003,8.9430933,0.22221494000000003,8.9157333Q0.18126863,8.8883743,0.14644665,8.8535528Q0.11162469000000003,8.8187304,0.08426526000000001,8.7777843Q0.05690581,8.7368374,0.03806028,8.6913414Q0.019214750000000003,8.6458435,0.009607399999999988,8.5975447Q2.9999999984209325e-8,8.5492458,0,8.5Q2.9999999984209325e-8,8.400543200000001,0.03806025000000002,8.3086576Q0.07612047,8.216772599999999,0.14644656,8.1464467L0.14663416,8.1462593L3.7928934,4.5L0.14650616,0.8536129299999999L0.14644662000000003,0.8535533799999999Q0.07612047,0.78322726,0.03806025000000002,0.69134173Q0,0.599456184,0,0.5Q2.9999999984209325e-8,0.4507543,0.009607399999999988,0.40245484600000003Q0.019214779999999987,0.35415538999999996,0.038060309999999986,0.3086583Q0.05690581,0.26316121000000003,0.08426523000000002,0.22221494000000003Q0.11162469000000003,0.18126863,0.14644665,0.14644665Q0.18126863,0.11162469000000003,0.22221491,0.08426526000000001Q0.26316121000000003,0.05690581,0.3086583,0.03806028Q0.35415538999999996,0.019214750000000003,0.40245484600000003,0.009607399999999988Q0.4507543,2.9999999984209325e-8,0.5,0Q0.599456184,0,0.69134173,0.03806021999999998Q0.78322726,0.07612047,0.8535533799999999,0.14644662000000003L0.8536129299999999,0.14650616Z" fill-rule="evenodd" fill="#666666" fill-opacity="1"/></g></g></svg>