<svg xmlns="http://www.w3.org/2000/svg" xmlns:xlink="http://www.w3.org/1999/xlink" fill="none" version="1.1" width="16" height="16" viewBox="0 0 16 16"><defs><clipPath id="master_svg0_0_635"><rect x="0" y="0" width="16" height="16" rx="0"/></clipPath></defs><g clip-path="url(#master_svg0_0_635)"><g><path d="M12.242666238418579,11.576000492279054C12.242666238418579,11.576000492279054,8.000000238418579,15.818600492279053,8.000000238418579,15.818600492279053C8.000000238418579,15.818600492279053,3.7573602384185794,11.576000492279054,3.7573602384185794,11.576000492279054C1.414213598418579,9.232800492279052,1.414213598418579,5.4338402922790525,3.7573602384185794,3.090693492279053C6.100506538418579,0.7475467922790527,9.899466738418578,0.7475467922790527,12.242666238418579,3.090693492279053C14.58580023841858,5.4338402922790525,14.58580023841858,9.232800492279052,12.242666238418579,11.576000492279054ZM8.000000238418579,8.666666992279053C8.736399938418579,8.666666992279053,9.333333238418579,8.069733592279054,9.333333238418579,7.333333492279053C9.333333238418579,6.596953392279053,8.736399938418579,6.000000492279053,8.000000238418579,6.000000492279053C7.263600138418579,6.000000492279053,6.666666738418579,6.596953392279053,6.666666738418579,7.333333492279053C6.666666738418579,8.069733592279054,7.263600138418579,8.666666992279053,8.000000238418579,8.666666992279053Z" fill="#FFFFFF" fill-opacity="1"/></g></g></svg>